<svg width="151" height="51" viewBox="0 0 151 51" fill="none" xmlns="http://www.w3.org/2000/svg">
<rect x="0.5" y="0.5" width="150" height="50" rx="9.09091" fill="black"/>
<path d="M36.1504 26.3868C36.1642 25.3161 36.4486 24.2663 36.9771 23.335C37.5057 22.4037 38.2612 21.6213 39.1734 21.0605C38.5939 20.2328 37.8294 19.5517 36.9406 19.0712C36.0519 18.5908 35.0633 18.3241 34.0535 18.2925C31.8993 18.0664 29.8109 19.5816 28.7132 19.5816C27.5942 19.5816 25.9041 18.315 24.0841 18.3524C22.9069 18.3905 21.7596 18.7328 20.754 19.3461C19.7484 19.9593 18.9188 20.8226 18.3461 21.8518C15.8651 26.1473 17.7157 32.4601 20.0923 35.9322C21.2813 37.6324 22.671 39.5316 24.4893 39.4642C26.2687 39.3904 26.9333 38.3296 29.0811 38.3296C31.209 38.3296 31.8325 39.4642 33.6877 39.4214C35.5971 39.3904 36.8 37.7137 37.9474 35.9974C38.8017 34.7859 39.4591 33.447 39.8952 32.0302C38.786 31.561 37.8393 30.7757 37.1734 29.7722C36.5075 28.7686 36.1517 27.5912 36.1504 26.3868Z" fill="white"/>
<path d="M32.6452 16.0091C33.6863 14.7594 34.1992 13.153 34.075 11.5312C32.4845 11.6983 31.0153 12.4585 29.9602 13.6602C29.4443 14.2473 29.0492 14.9304 28.7975 15.6703C28.5457 16.4102 28.4423 17.1924 28.493 17.9723C29.2886 17.9805 30.0756 17.8081 30.7948 17.468C31.514 17.128 32.1467 16.6291 32.6452 16.0091Z" fill="white"/>
<path d="M61.9598 31.9567H56.896L55.68 35.4653H53.5352L58.3315 22.4844H60.5598L65.3561 35.4653H63.1748L61.9598 31.9567ZM57.4205 30.3376H61.4343L59.4556 24.6434H59.4002L57.4205 30.3376Z" fill="white"/>
<path d="M75.7095 30.7318C75.7095 33.6728 74.0985 35.5623 71.6675 35.5623C71.0517 35.5938 70.4392 35.4552 69.9002 35.1624C69.3613 34.8695 68.9176 34.4343 68.62 33.9065H68.574V38.5942H66.5859V25.9992H68.5103V27.5733H68.5469C68.8582 27.0481 69.3093 26.6151 69.8524 26.3205C70.3954 26.0259 71.0101 25.8806 71.6309 25.9002C74.0891 25.9002 75.7095 27.7989 75.7095 30.7318ZM73.666 30.7318C73.666 28.8157 72.6526 27.556 71.1065 27.556C69.5874 27.556 68.5657 28.8422 68.5657 30.7318C68.5657 32.6387 69.5874 33.9157 71.1065 33.9157C72.6526 33.9157 73.666 32.6652 73.666 30.7318Z" fill="white"/>
<path d="M86.3814 30.7318C86.3814 33.6728 84.7704 35.5623 82.3394 35.5623C81.7235 35.5938 81.1111 35.4552 80.5721 35.1623C80.0332 34.8695 79.5895 34.4343 79.2919 33.9065H79.2459V38.5942H77.2578V25.9992H79.1822V27.5733H79.2187C79.53 27.0481 79.9812 26.6151 80.5242 26.3205C81.0673 26.0259 81.6819 25.8806 82.3028 25.9002C84.761 25.9002 86.3814 27.7989 86.3814 30.7318ZM84.3379 30.7318C84.3379 28.8157 83.3245 27.556 81.7783 27.556C80.2593 27.556 79.2376 28.8422 79.2376 30.7318C79.2376 32.6387 80.2593 33.9157 81.7783 33.9157C83.3245 33.9157 84.3379 32.6652 84.3379 30.7318H84.3379Z" fill="white"/>
<path d="M93.4258 31.8501C93.5731 33.1373 94.8529 33.9825 96.6017 33.9825C98.2774 33.9825 99.483 33.1373 99.483 31.9766C99.483 30.969 98.7559 30.3657 97.0342 29.9523L95.3125 29.547C92.8731 28.9713 91.7406 27.8565 91.7406 26.0476C91.7406 23.8079 93.7381 22.2695 96.5746 22.2695C99.3817 22.2695 101.306 23.8079 101.371 26.0476H99.3639C99.2438 24.7522 98.1479 23.9702 96.5463 23.9702C94.9448 23.9702 93.8489 24.7614 93.8489 25.9129C93.8489 26.8306 94.5488 27.3706 96.2611 27.784L97.7248 28.1352C100.45 28.765 101.583 29.8349 101.583 31.7336C101.583 34.1621 99.6032 35.6832 96.4544 35.6832C93.5083 35.6832 91.5191 34.1979 91.3906 31.85L93.4258 31.8501Z" fill="white"/>
<path d="M105.875 23.7617V26.0014H107.716V27.5398H105.875V32.7573C105.875 33.5678 106.243 33.9455 107.053 33.9455C107.272 33.9418 107.49 33.9268 107.707 33.9006V35.4298C107.343 35.4962 106.973 35.5263 106.603 35.5196C104.642 35.5196 103.877 34.7999 103.877 32.9645V27.5398H102.469V26.0014H103.877V23.7617H105.875Z" fill="white"/>
<path d="M108.793 30.7357C108.793 27.7579 110.588 25.8867 113.387 25.8867C116.195 25.8867 117.981 27.7579 117.981 30.7357C117.981 33.7216 116.204 35.5846 113.387 35.5846C110.57 35.5846 108.793 33.7216 108.793 30.7357ZM115.956 30.7357C115.956 28.693 114.998 27.4874 113.387 27.4874C111.776 27.4874 110.819 28.7022 110.819 30.7357C110.819 32.7865 111.776 33.9829 113.387 33.9829C114.998 33.9829 115.956 32.7865 115.956 30.7357H115.956Z" fill="white"/>
<path d="M119.605 25.9991H121.502V27.61H121.548C121.676 27.1069 121.978 26.6623 122.402 26.3509C122.826 26.0395 123.347 25.8803 123.877 25.9001C124.106 25.8993 124.335 25.9236 124.559 25.9726V27.7896C124.269 27.7033 123.968 27.6636 123.665 27.6722C123.376 27.6608 123.088 27.7106 122.821 27.8181C122.554 27.9257 122.314 28.0885 122.117 28.2953C121.92 28.5022 121.771 28.7482 121.681 29.0165C121.591 29.2848 121.561 29.569 121.594 29.8497V35.4632H119.605L119.605 25.9991Z" fill="white"/>
<path d="M133.721 32.6875C133.454 34.4055 131.742 35.5846 129.551 35.5846C126.733 35.5846 124.984 33.7399 124.984 30.7806C124.984 27.812 126.743 25.8867 129.467 25.8867C132.147 25.8867 133.832 27.6854 133.832 30.555V31.2205H126.991V31.3379C126.96 31.6862 127.004 32.0371 127.122 32.3673C127.24 32.6974 127.428 32.9993 127.675 33.2529C127.921 33.5064 128.22 33.7058 128.552 33.8378C128.883 33.9699 129.239 34.0315 129.597 34.0186C130.067 34.0616 130.538 33.9553 130.941 33.7155C131.344 33.4756 131.657 33.1151 131.834 32.6875L133.721 32.6875ZM127.001 29.8628H131.843C131.861 29.5497 131.812 29.2363 131.7 28.9423C131.588 28.6484 131.415 28.3802 131.192 28.1546C130.969 27.9291 130.701 27.751 130.404 27.6316C130.107 27.5123 129.788 27.4541 129.467 27.4608C129.144 27.4589 128.823 27.5197 128.523 27.6397C128.223 27.7596 127.951 27.9363 127.722 28.1597C127.492 28.383 127.311 28.6485 127.187 28.9408C127.063 29.2331 127 29.5465 127.001 29.8629V29.8628Z" fill="white"/>
<path d="M57.1729 12.7141C57.5897 12.6849 58.0079 12.7464 58.3975 12.8943C58.787 13.0421 59.1381 13.2726 59.4254 13.5691C59.7127 13.8655 59.9291 14.2206 60.059 14.6087C60.1889 14.9968 60.229 15.4083 60.1764 15.8133C60.1764 17.806 59.0743 18.9514 57.1729 18.9514H54.8672V12.7141H57.1729ZM55.8586 18.0693H57.0621C57.36 18.0867 57.658 18.039 57.9346 17.9296C58.2112 17.8203 58.4593 17.652 58.661 17.4372C58.8626 17.2223 59.0127 16.9662 59.1003 16.6875C59.1879 16.4088 59.2107 16.1145 59.1672 15.8261C59.2076 15.5388 59.1824 15.2463 59.0935 14.9696C59.0045 14.693 58.8541 14.439 58.6529 14.2258C58.4517 14.0126 58.2048 13.8456 57.9297 13.7366C57.6547 13.6276 57.3584 13.5795 57.0621 13.5955H55.8586V18.0693Z" fill="white"/>
<path d="M61.3076 16.5946C61.2773 16.2853 61.3136 15.9732 61.4139 15.6783C61.5143 15.3835 61.6767 15.1124 61.8906 14.8824C62.1045 14.6525 62.3652 14.4687 62.656 14.343C62.9468 14.2173 63.2613 14.1523 63.5794 14.1523C63.8974 14.1523 64.2119 14.2173 64.5027 14.343C64.7935 14.4687 65.0543 14.6525 65.2681 14.8824C65.482 15.1124 65.6444 15.3835 65.7448 15.6783C65.8452 15.9732 65.8814 16.2853 65.8511 16.5946C65.882 16.9043 65.8462 17.2168 65.7461 17.5121C65.6459 17.8075 65.4837 18.0791 65.2697 18.3095C65.0558 18.5399 64.7949 18.724 64.5037 18.85C64.2126 18.976 63.8978 19.0411 63.5794 19.0411C63.261 19.0411 62.9461 18.976 62.655 18.85C62.3639 18.724 62.1029 18.5399 61.889 18.3095C61.675 18.0791 61.5128 17.8075 61.4127 17.5121C61.3125 17.2168 61.2768 16.9043 61.3076 16.5946ZM64.8732 16.5946C64.8732 15.5743 64.4042 14.9776 63.5809 14.9776C62.7546 14.9776 62.2897 15.5743 62.2897 16.5946C62.2897 17.6231 62.7546 18.2152 63.5809 18.2152C64.4042 18.2152 64.8732 17.619 64.8732 16.5946H64.8732Z" fill="white"/>
<path d="M71.8844 18.9492H70.8982L69.9026 15.4825H69.8273L68.8359 18.9492H67.8591L66.5312 14.2422H67.4955L68.3585 17.8339H68.4295L69.4199 14.2422H70.3319L71.3223 17.8339H71.3976L72.2563 14.2422H73.207L71.8844 18.9492Z" fill="white"/>
<path d="M74.3281 14.24H75.2433V14.9878H75.3143C75.4349 14.7192 75.6381 14.4941 75.8958 14.3438C76.1535 14.1934 76.4527 14.1254 76.7519 14.1492C76.9863 14.1319 77.2216 14.1665 77.4405 14.2502C77.6594 14.3339 77.8562 14.4647 78.0163 14.6328C78.1764 14.801 78.2958 15.0022 78.3655 15.2215C78.4353 15.4408 78.4536 15.6727 78.4192 15.8999V18.947H77.4686V16.1332C77.4686 15.3767 77.1322 15.0005 76.4291 15.0005C76.2699 14.9933 76.1111 15.0198 75.9634 15.0781C75.8157 15.1365 75.6826 15.2254 75.5734 15.3387C75.4641 15.452 75.3812 15.587 75.3304 15.7345C75.2796 15.8821 75.262 16.0386 75.2788 16.1934V18.9471H74.3281L74.3281 14.24Z" fill="white"/>
<path d="M79.9219 12.4062H80.8726V18.9508H79.9219V12.4062Z" fill="white"/>
<path d="M82.206 16.5947C82.1758 16.2854 82.212 15.9732 82.3124 15.6784C82.4128 15.3835 82.5752 15.1124 82.7891 14.8824C83.003 14.6525 83.2638 14.4687 83.5546 14.343C83.8455 14.2173 84.16 14.1523 84.478 14.1523C84.7961 14.1523 85.1106 14.2173 85.4014 14.343C85.6923 14.4687 85.953 14.6525 86.1669 14.8824C86.3809 15.1124 86.5432 15.3835 86.6436 15.6784C86.7441 15.9732 86.7803 16.2854 86.75 16.5947C86.7809 16.9044 86.745 17.2169 86.6449 17.5122C86.5447 17.8076 86.3824 18.0792 86.1685 18.3096C85.9545 18.54 85.6936 18.7241 85.4024 18.8501C85.1113 18.9761 84.7964 19.0411 84.478 19.0411C84.1596 19.0411 83.8447 18.9761 83.5536 18.8501C83.2625 18.7241 83.0016 18.54 82.7876 18.3096C82.5736 18.0792 82.4113 17.8076 82.3112 17.5122C82.211 17.2169 82.1752 16.9044 82.206 16.5947ZM85.7716 16.5947C85.7716 15.5744 85.3026 14.9777 84.4793 14.9777C83.653 14.9777 83.1881 15.5744 83.1881 16.5947C83.1881 17.6232 83.653 18.2153 84.4793 18.2153C85.3026 18.2153 85.7717 17.6191 85.7717 16.5947H85.7716Z" fill="white"/>
<path d="M87.75 17.6191C87.75 16.7718 88.3956 16.2833 89.5417 16.2139L90.8465 16.1404V15.7341C90.8465 15.237 90.5101 14.9562 89.8603 14.9562C89.3296 14.9562 88.9619 15.1466 88.8564 15.4794H87.936C88.0331 14.6709 88.8114 14.1523 89.9042 14.1523C91.1119 14.1523 91.7931 14.7398 91.7931 15.7341V18.9502H90.8779V18.2887H90.8027C90.65 18.526 90.4356 18.7195 90.1814 18.8493C89.9272 18.9791 89.6423 19.0407 89.3557 19.0278C89.1535 19.0483 88.9491 19.0273 88.7557 18.9659C88.5624 18.9045 88.3843 18.8043 88.233 18.6715C88.0817 18.5388 87.9606 18.3766 87.8774 18.1953C87.7942 18.014 87.7508 17.8177 87.75 17.6191ZM90.8465 17.2169V16.8233L89.6702 16.8968C89.0068 16.9402 88.7059 17.1607 88.7059 17.5757C88.7059 17.9993 89.082 18.2459 89.5992 18.2459C89.7507 18.2608 89.9038 18.2459 90.0493 18.2019C90.1948 18.1579 90.3297 18.0857 90.4461 17.9897C90.5625 17.8937 90.6579 17.7758 90.7267 17.6431C90.7955 17.5103 90.8363 17.3653 90.8465 17.2169Z" fill="white"/>
<path d="M93.043 16.5952C93.043 15.1079 93.8255 14.1657 95.0426 14.1657C95.3436 14.1521 95.6424 14.2226 95.904 14.3688C96.1656 14.515 96.3792 14.731 96.5198 14.9915H96.5908V12.4062H97.5415V18.9508H96.6305V18.2071H96.5553C96.4038 18.4658 96.1828 18.6791 95.9161 18.8239C95.6495 18.9686 95.3474 19.0393 95.0426 19.0284C93.8171 19.0284 93.043 18.0862 93.043 16.5952ZM94.025 16.5952C94.025 17.5936 94.5067 18.1944 95.3121 18.1944C96.1134 18.1944 96.6086 17.5849 96.6086 16.5993C96.6086 15.6183 96.1082 15.0002 95.3121 15.0002C94.5118 15.0002 94.025 15.605 94.025 16.5952H94.025Z" fill="white"/>
<path d="M101.468 16.5946C101.437 16.2853 101.474 15.9732 101.574 15.6783C101.674 15.3835 101.837 15.1124 102.051 14.8824C102.265 14.6525 102.525 14.4687 102.816 14.343C103.107 14.2173 103.422 14.1523 103.74 14.1523C104.058 14.1523 104.372 14.2173 104.663 14.343C104.954 14.4687 105.214 14.6525 105.428 14.8824C105.642 15.1124 105.805 15.3835 105.905 15.6783C106.005 15.9732 106.042 16.2853 106.011 16.5946C106.042 16.9043 106.006 17.2168 105.906 17.5121C105.806 17.8075 105.644 18.0791 105.43 18.3095C105.216 18.5399 104.955 18.724 104.664 18.85C104.373 18.976 104.058 19.0411 103.74 19.0411C103.421 19.0411 103.106 18.976 102.815 18.85C102.524 18.724 102.263 18.5399 102.049 18.3095C101.835 18.0791 101.673 17.8075 101.573 17.5121C101.473 17.2168 101.437 16.9043 101.468 16.5946ZM105.033 16.5946C105.033 15.5743 104.564 14.9776 103.741 14.9776C102.915 14.9776 102.45 15.5743 102.45 16.5946C102.45 17.6231 102.915 18.2152 103.741 18.2152C104.564 18.2152 105.033 17.619 105.033 16.5946Z" fill="white"/>
<path d="M107.281 14.24H108.196V14.9878H108.267C108.388 14.7192 108.591 14.4941 108.849 14.3438C109.107 14.1934 109.406 14.1254 109.705 14.1492C109.939 14.1319 110.175 14.1665 110.394 14.2502C110.612 14.3339 110.809 14.4647 110.969 14.6328C111.13 14.801 111.249 15.0022 111.319 15.2215C111.388 15.4408 111.407 15.6727 111.372 15.8999V18.947H110.422V16.1332C110.422 15.3767 110.085 15.0005 109.382 15.0005C109.223 14.9933 109.064 15.0198 108.916 15.0781C108.769 15.1365 108.636 15.2254 108.527 15.3387C108.417 15.452 108.334 15.587 108.284 15.7345C108.233 15.8821 108.215 16.0386 108.232 16.1934V18.9471H107.281V14.24Z" fill="white"/>
<path d="M116.759 13.0703V14.2637H117.803V15.0461H116.759V17.4665C116.759 17.9596 116.967 18.1755 117.441 18.1755C117.562 18.1751 117.683 18.1679 117.803 18.154V18.9278C117.632 18.9577 117.459 18.9735 117.286 18.9753C116.229 18.9753 115.808 18.6119 115.808 17.7044V15.0461H115.043V14.2636H115.808V13.0703H116.759Z" fill="white"/>
<path d="M119.09 12.4062H120.032V15.0002H120.107C120.234 14.7291 120.443 14.5027 120.705 14.3518C120.968 14.2009 121.272 14.1329 121.576 14.157C121.809 14.1446 122.042 14.1826 122.259 14.2684C122.475 14.3541 122.67 14.4855 122.828 14.6531C122.987 14.8207 123.105 15.0204 123.176 15.238C123.246 15.4556 123.266 15.6856 123.235 15.9118V18.9508H122.284V16.1409C122.284 15.3891 121.925 15.0083 121.253 15.0083C121.09 14.9952 120.926 15.0172 120.772 15.0726C120.618 15.1281 120.479 15.2157 120.363 15.3294C120.248 15.4431 120.159 15.58 120.103 15.7307C120.047 15.8814 120.026 16.0421 120.041 16.2017V18.9508H119.09L119.09 12.4062Z" fill="white"/>
<path d="M128.786 17.6794C128.657 18.1096 128.377 18.4817 127.996 18.7306C127.614 18.9796 127.155 19.0895 126.699 19.0412C126.382 19.0493 126.066 18.99 125.775 18.8671C125.483 18.7442 125.222 18.5609 125.011 18.3297C124.799 18.0985 124.641 17.8251 124.549 17.5284C124.456 17.2318 124.43 16.9189 124.474 16.6116C124.431 16.3033 124.457 15.9898 124.55 15.6922C124.642 15.3947 124.799 15.12 125.01 14.8868C125.221 14.6536 125.48 14.4674 125.771 14.3407C126.061 14.214 126.376 14.1498 126.695 14.1524C128.035 14.1524 128.844 15.0472 128.844 16.5253V16.8495H125.442V16.9015C125.427 17.0743 125.449 17.2481 125.507 17.412C125.565 17.5758 125.658 17.7261 125.778 17.853C125.899 17.98 126.046 18.0809 126.209 18.1492C126.372 18.2176 126.548 18.2519 126.725 18.25C126.952 18.2767 127.183 18.2367 127.387 18.135C127.591 18.0334 127.76 17.8748 127.871 17.6794L128.786 17.6794ZM125.442 16.1624H127.875C127.887 16.0045 127.865 15.8458 127.811 15.6966C127.756 15.5474 127.67 15.411 127.559 15.2962C127.447 15.1813 127.312 15.0906 127.162 15.0298C127.013 14.969 126.852 14.9394 126.689 14.9431C126.525 14.941 126.362 14.9712 126.21 15.0318C126.057 15.0923 125.919 15.1821 125.803 15.2957C125.686 15.4094 125.595 15.5446 125.533 15.6935C125.471 15.8423 125.44 16.0018 125.442 16.1624H125.442Z" fill="white"/>
</svg>
