<svg width="80" height="81" viewBox="0 0 80 81" fill="none" xmlns="http://www.w3.org/2000/svg">
<path d="M74.8125 35.6875C73.7344 34.625 72.75 33.7031 71.8281 32.7344C71.6719 32.5625 71.6875 32.2031 71.6875 31.9219C71.6719 28.2969 71.6875 24.6875 71.6875 21.0625C71.6875 17.5156 69.6562 15.4688 66.125 15.4688C48.7031 15.4688 31.2812 15.4688 13.8594 15.4688C10.375 15.4688 8.32812 17.5156 8.3125 21C8.3125 25.1094 8.35937 29.2344 8.29687 33.3438C8.25 36.6719 10.7187 38.8594 13.7656 38.8281C20.9844 38.7344 28.1875 38.7969 35.4063 38.7969C35.7188 38.7969 36.0156 38.7969 36.4219 38.7969C35.9219 39.8906 35.4844 40.9062 34.9844 41.8906C34.8906 42.0781 34.4688 42.1563 34.1875 42.1563C29.4688 42.1719 24.7656 42.1719 20.0469 42.1563C17.4688 42.1406 14.875 42.2344 12.3125 42.0312C8.35938 41.7188 5.09375 38.2031 5.03125 34.2344C4.95312 29.5156 4.95312 24.7969 5.03125 20.0938C5.09375 15.875 8.6875 12.3437 12.9062 12.1719C13.1875 12.1562 13.4844 12.1562 13.7656 12.1562C31.2656 12.1562 48.7656 12.1562 66.2656 12.1562C69.9219 12.1562 72.6562 13.7031 74.2188 17.0313C74.7031 18.0625 74.9688 19.2813 74.9844 20.4219C75.0625 24.9219 75.0312 29.4375 75.0156 33.9375C74.9844 34.4688 74.875 35.0156 74.8125 35.6875Z" fill="#765AEB"/>
<path d="M56.719 32.1721C66.9221 32.219 75.0627 40.4689 75.0002 50.7033C74.9377 60.7033 66.6565 68.8596 56.6096 68.8127C46.4846 68.7658 38.2658 60.5158 38.3127 50.4377C38.3596 40.3127 46.6096 32.1252 56.719 32.1721ZM41.6721 50.5158C41.6877 58.7971 48.4064 65.5002 56.6877 65.5002C64.9377 65.4846 71.7033 58.7033 71.6721 50.4689C71.6408 42.2033 64.9065 35.4846 56.6408 35.4846C48.3752 35.4846 41.6565 42.2346 41.6721 50.5158Z" fill="#765AEB"/>
<path d="M33.3282 30.4848C31.5001 30.4848 30.0157 29.0005 30.0001 27.1723C29.9845 25.313 31.5314 23.7817 33.3751 23.813C35.1876 23.8442 36.6876 25.3755 36.672 27.1723C36.6407 28.9848 35.1407 30.4848 33.3282 30.4848Z" fill="#765AEB"/>
<path d="M16.672 27.0781C16.7033 25.2343 18.2345 23.75 20.047 23.8125C21.9064 23.875 23.3126 25.3593 23.297 27.2187C23.2658 29.0625 21.7658 30.5156 19.922 30.4843C18.0939 30.4531 16.6564 28.9375 16.672 27.0781Z" fill="#765AEB"/>
<path d="M49.9821 27.0937C49.9977 27.7812 49.7946 28.2187 49.0446 28.4687C47.8883 28.8593 46.8102 29.4375 45.6852 29.8906C45.4352 30 45.0133 29.9843 44.7946 29.8437C43.4821 29.0156 42.9821 27.3125 43.5758 25.875C44.1852 24.3906 45.7321 23.5781 47.3102 23.8906C48.8571 24.2031 49.9821 25.5625 49.9821 27.0937Z" fill="#765AEB"/>
<path d="M56.7503 26.952C56.6253 25.8113 57.4847 24.5457 58.8284 24.0457C60.2191 23.5145 61.7972 23.9832 62.6566 25.1551C63.1722 25.8582 63.4066 26.6395 63.2503 27.4988C63.2191 27.6863 62.8909 27.9832 62.7503 27.952C60.7659 27.6551 58.7816 27.2957 56.7503 26.952Z" fill="#765AEB"/>
<path d="M41.6719 50.5156C41.6563 42.2344 48.375 35.4844 56.625 35.4844C64.8906 35.4844 71.6406 42.2031 71.6563 50.4687C71.6875 58.7187 64.9219 65.4844 56.6719 65.5C48.4063 65.5156 41.6875 58.7969 41.6719 50.5156ZM54.4219 52.625C53.375 51.5469 52.4063 50.5312 51.4063 49.5469C50.5313 48.6719 49.5938 48.5937 48.8594 49.2969C48.0938 50.0156 48.1563 51 49.0469 51.9062C50.3438 53.2188 51.6563 54.5313 52.9688 55.8281C54.0469 56.8906 54.8438 56.9063 55.9063 55.8438C57.4531 54.2969 59 52.75 60.5469 51.2031C61.875 49.875 63.2188 48.5625 64.5156 47.2188C65.2031 46.5 65.1719 45.5625 64.5156 44.9063C63.875 44.25 62.9531 44.2344 62.2031 44.8594C62 45.0312 61.8281 45.2188 61.6406 45.4062C59.2656 47.7656 56.8906 50.1406 54.4219 52.625Z" fill="#DED7FB"/>
<path d="M54.4215 52.6253C56.8903 50.1409 59.2653 47.7659 61.6246 45.3909C61.8121 45.2034 61.984 45.0159 62.1871 44.844C62.9371 44.219 63.859 44.2347 64.4996 44.8909C65.1403 45.5472 65.1715 46.4847 64.4996 47.2034C63.2028 48.5628 61.859 49.8597 60.5309 51.1878C58.984 52.7347 57.4371 54.2815 55.8903 55.8284C54.8278 56.8909 54.0153 56.8909 52.9528 55.8128C51.6403 54.5159 50.3278 53.2034 49.0309 51.8909C48.1403 51.0003 48.0778 50.0159 48.8434 49.2815C49.5778 48.5784 50.5153 48.6722 51.3903 49.5315C52.3903 50.5472 53.3746 51.5472 54.4215 52.6253Z" fill="#765AEB"/>
</svg>
