<svg width="151" height="51" viewBox="0 0 151 51" fill="none" xmlns="http://www.w3.org/2000/svg">
<rect x="0.5" y="0.5" width="150" height="50" rx="9.09091" fill="black"/>
<path d="M28.1475 24.9331L17.6328 36.0927C17.6338 36.0947 17.6338 36.0976 17.6348 36.0996C17.9577 37.3113 19.0638 38.2031 20.3773 38.2031C20.9027 38.2031 21.3955 38.0609 21.8182 37.812L21.8517 37.7923L33.6868 30.9632L28.1475 24.9331Z" fill="#EA4335"/>
<path d="M38.7902 23.0278L38.7804 23.0209L33.6706 20.0591L27.9141 25.1817L33.6914 30.957L38.7734 28.0249C39.6642 27.543 40.2696 26.6038 40.2696 25.5214C40.2696 24.445 39.6731 23.5107 38.7902 23.0278Z" fill="#FBBC04"/>
<path d="M17.6437 14.9093C17.5805 15.1424 17.5469 15.3873 17.5469 15.6401V35.36C17.5469 35.6128 17.5805 35.8578 17.6446 36.0898L28.5198 25.2156L17.6437 14.9093Z" fill="#4285F4"/>
<path d="M28.2255 25.5039L33.6671 20.0634L21.8458 13.2096C21.4162 12.9518 20.9145 12.8037 20.3783 12.8037C19.0648 12.8037 17.9567 13.6974 17.6338 14.9102C17.6338 14.9112 17.6328 14.9122 17.6328 14.9131L28.2255 25.5039Z" fill="#34A853"/>
<path d="M59.8988 15.9046C59.8988 16.6909 59.6661 17.3167 59.1997 17.784C58.6696 18.3395 57.9799 18.6172 57.1317 18.6172C56.3182 18.6172 55.6276 18.3357 55.0599 17.7718C54.4904 17.2088 54.207 16.5098 54.207 15.6765C54.207 14.8424 54.4904 14.1443 55.0599 13.5804C55.6276 13.0174 56.3182 12.735 57.1317 12.735C57.5342 12.735 57.9208 12.8138 58.2868 12.9714C58.6536 13.1291 58.9473 13.3383 59.1678 13.6001L58.6724 14.0955C58.2999 13.6508 57.7867 13.4274 57.1317 13.4274C56.5387 13.4274 56.0264 13.6357 55.5938 14.0523C55.1613 14.4699 54.9455 15.0104 54.9455 15.6765C54.9455 16.3418 55.1613 16.8832 55.5938 17.2998C56.0264 17.7174 56.5387 17.9247 57.1317 17.9247C57.7604 17.9247 58.284 17.7155 58.7043 17.2961C58.9764 17.023 59.1331 16.6439 59.1753 16.156H57.1317V15.4795H59.8594C59.8856 15.6268 59.8988 15.7685 59.8988 15.9046Z" fill="white"/>
<path d="M59.8988 15.9046C59.8988 16.6909 59.6661 17.3167 59.1997 17.784C58.6696 18.3395 57.9799 18.6172 57.1317 18.6172C56.3182 18.6172 55.6276 18.3357 55.0599 17.7718C54.4904 17.2088 54.207 16.5098 54.207 15.6765C54.207 14.8424 54.4904 14.1443 55.0599 13.5804C55.6276 13.0174 56.3182 12.735 57.1317 12.735C57.5342 12.735 57.9208 12.8138 58.2868 12.9714C58.6536 13.1291 58.9473 13.3383 59.1678 13.6001L58.6724 14.0955C58.2999 13.6508 57.7867 13.4274 57.1317 13.4274C56.5387 13.4274 56.0264 13.6357 55.5938 14.0523C55.1613 14.4699 54.9455 15.0104 54.9455 15.6765C54.9455 16.3418 55.1613 16.8832 55.5938 17.2998C56.0264 17.7174 56.5387 17.9247 57.1317 17.9247C57.7604 17.9247 58.284 17.7155 58.7043 17.2961C58.9764 17.023 59.1331 16.6439 59.1753 16.156H57.1317V15.4795H59.8594C59.8856 15.6268 59.8988 15.7685 59.8988 15.9046Z" fill="white"/>
<path d="M64.2244 13.55H61.6609V15.3346H63.9729V16.0112H61.6609V17.7958H64.2244V18.4883H60.9375V12.8585H64.2244V13.55Z" fill="white"/>
<path d="M64.2244 13.55H61.6609V15.3346H63.9729V16.0112H61.6609V17.7958H64.2244V18.4883H60.9375V12.8585H64.2244V13.55Z" fill="white"/>
<path d="M67.2804 18.4883H66.557V13.55H64.9844V12.8585H68.853V13.55H67.2804V18.4883Z" fill="white"/>
<path d="M67.2804 18.4883H66.557V13.55H64.9844V12.8585H68.853V13.55H67.2804V18.4883Z" fill="white"/>
<path d="M71.6445 12.8585H72.368V18.4883H71.6445V12.8585Z" fill="white"/>
<path d="M75.589 18.4883H74.8656V13.55H73.293V12.8585H77.1616V13.55H75.589V18.4883Z" fill="white"/>
<path d="M75.589 18.4883H74.8656V13.55H73.293V12.8585H77.1616V13.55H75.589V18.4883Z" fill="white"/>
<path d="M80.8712 17.2923C81.2878 17.7145 81.7973 17.9247 82.4006 17.9247C83.0039 17.9247 83.5134 17.7145 83.93 17.2923C84.3466 16.8701 84.5559 16.3315 84.5559 15.6765C84.5559 15.0216 84.3466 14.4821 83.93 14.0608C83.5134 13.6386 83.0039 13.4274 82.4006 13.4274C81.7973 13.4274 81.2878 13.6386 80.8712 14.0608C80.4555 14.4821 80.2463 15.0216 80.2463 15.6765C80.2463 16.3315 80.4555 16.8701 80.8712 17.2923ZM84.4649 17.7633C83.9113 18.3329 83.2235 18.6172 82.4006 18.6172C81.5777 18.6172 80.8899 18.3329 80.3373 17.7633C79.7837 17.1947 79.5078 16.4994 79.5078 15.6765C79.5078 14.8537 79.7837 14.1574 80.3373 13.5888C80.8899 13.0202 81.5777 12.735 82.4006 12.735C83.2188 12.735 83.9047 13.0212 84.4611 13.5926C85.0166 14.164 85.2943 14.8584 85.2943 15.6765C85.2943 16.4994 85.0175 17.1947 84.4649 17.7633Z" fill="white"/>
<path d="M80.8712 17.2923C81.2878 17.7145 81.7973 17.9247 82.4006 17.9247C83.0039 17.9247 83.5134 17.7145 83.93 17.2923C84.3466 16.8701 84.5559 16.3315 84.5559 15.6765C84.5559 15.0216 84.3466 14.4821 83.93 14.0608C83.5134 13.6386 83.0039 13.4274 82.4006 13.4274C81.7973 13.4274 81.2878 13.6386 80.8712 14.0608C80.4555 14.4821 80.2463 15.0216 80.2463 15.6765C80.2463 16.3315 80.4555 16.8701 80.8712 17.2923ZM84.4649 17.7633C83.9113 18.3329 83.2235 18.6172 82.4006 18.6172C81.5777 18.6172 80.8899 18.3329 80.3373 17.7633C79.7837 17.1947 79.5078 16.4994 79.5078 15.6765C79.5078 14.8537 79.7837 14.1574 80.3373 13.5888C80.8899 13.0202 81.5777 12.735 82.4006 12.735C83.2188 12.735 83.9047 13.0212 84.4611 13.5926C85.0166 14.164 85.2943 14.8584 85.2943 15.6765C85.2943 16.4994 85.0175 17.1947 84.4649 17.7633Z" fill="white"/>
<path d="M86.3086 18.4883V12.8585H87.1887L89.9248 17.2375H89.9567L89.9248 16.1528V12.8585H90.6492V18.4883H89.8938L87.0311 13.8962H87.0001L87.0311 14.9818V18.4883H86.3086Z" fill="white"/>
<path d="M86.3086 18.4883V12.8585H87.1887L89.9248 17.2375H89.9567L89.9248 16.1528V12.8585H90.6492V18.4883H89.8938L87.0311 13.8962H87.0001L87.0311 14.9818V18.4883H86.3086Z" fill="white"/>
<path d="M115.735 34.4411H117.486V22.7114H115.735V34.4411ZM131.505 26.9366L129.498 32.0222H129.438L127.355 26.9366H125.469L128.592 34.0442L126.812 37.9982H128.637L133.452 26.9366H131.505ZM121.576 33.1087C121.001 33.1087 120.202 32.8225 120.202 32.1122C120.202 31.2077 121.197 30.8605 122.058 30.8605C122.827 30.8605 123.19 31.0266 123.658 31.2528C123.522 32.3393 122.586 33.1087 121.576 33.1087ZM121.787 26.6804C120.519 26.6804 119.205 27.2387 118.663 28.4763L120.217 29.1247C120.549 28.4763 121.167 28.2643 121.817 28.2643C122.722 28.2643 123.643 28.8075 123.658 29.774V29.8941C123.341 29.713 122.662 29.4418 121.832 29.4418C120.157 29.4418 118.451 30.3623 118.451 32.0822C118.451 33.652 119.825 34.6635 121.364 34.6635C122.541 34.6635 123.19 34.1352 123.598 33.5159H123.658V34.4214H125.348V29.9241C125.348 27.842 123.794 26.6804 121.787 26.6804ZM110.966 28.3647H108.476V24.344H110.966C112.275 24.344 113.018 25.4278 113.018 26.3539C113.018 27.2631 112.275 28.3647 110.966 28.3647ZM110.921 22.7114H106.726V34.4411H108.476V29.9973H110.921C112.862 29.9973 114.769 28.5917 114.769 26.3539C114.769 24.116 112.862 22.7114 110.921 22.7114ZM88.0445 33.1106C86.835 33.1106 85.8226 32.0982 85.8226 30.7076C85.8226 29.302 86.835 28.2737 88.0445 28.2737C89.2389 28.2737 90.1754 29.302 90.1754 30.7076C90.1754 32.0982 89.2389 33.1106 88.0445 33.1106ZM90.0553 27.5934H89.9943C89.6011 27.1252 88.8458 26.702 87.8934 26.702C85.8976 26.702 84.0689 28.4547 84.0689 30.7076C84.0689 32.9445 85.8976 34.6832 87.8934 34.6832C88.8458 34.6832 89.6011 34.26 89.9943 33.7759H90.0553V34.351C90.0553 35.8776 89.2389 36.694 87.9234 36.694C86.85 36.694 86.1848 35.9227 85.9127 35.2724L84.386 35.9077C84.8242 36.9661 85.9887 38.2656 87.9234 38.2656C89.9793 38.2656 91.7179 37.0562 91.7179 34.1089V26.9431H90.0553V27.5934ZM92.9274 34.4411H94.6811V22.7105H92.9274V34.4411ZM97.2652 30.5716C97.2201 29.0299 98.4596 28.2436 99.351 28.2436C100.047 28.2436 100.636 28.5908 100.833 29.09L97.2652 30.5716ZM102.707 29.241C102.375 28.3497 101.362 26.702 99.291 26.702C97.2351 26.702 95.5274 28.3187 95.5274 30.6926C95.5274 32.9295 97.2201 34.6832 99.4871 34.6832C101.317 34.6832 102.375 33.5647 102.813 32.9145L101.453 32.0072C101 32.6724 100.379 33.1106 99.4871 33.1106C98.5957 33.1106 97.9605 32.7024 97.5523 31.9021L102.888 29.6942L102.707 29.241ZM60.1947 27.9265V29.6192H64.2454C64.1244 30.5716 63.8072 31.2668 63.324 31.7501C62.7338 32.3402 61.8114 32.9905 60.1947 32.9905C57.6998 32.9905 55.75 30.9797 55.75 28.4857C55.75 25.9908 57.6998 23.9809 60.1947 23.9809C61.5403 23.9809 62.5227 24.5101 63.248 25.1904L64.4424 23.9959C63.4291 23.0285 62.0845 22.2873 60.1947 22.2873C56.7784 22.2873 53.9062 25.0694 53.9062 28.4857C53.9062 31.9021 56.7784 34.6832 60.1947 34.6832C62.0385 34.6832 63.4291 34.078 64.5175 32.9445C65.6369 31.8261 65.9841 30.2544 65.9841 28.9839C65.9841 28.5908 65.954 28.2286 65.8931 27.9265H60.1947ZM70.5902 33.1106C69.3807 33.1106 68.3373 32.1132 68.3373 30.6926C68.3373 29.2561 69.3807 28.2737 70.5902 28.2737C71.7987 28.2737 72.8421 29.2561 72.8421 30.6926C72.8421 32.1132 71.7987 33.1106 70.5902 33.1106ZM70.5902 26.702C68.3824 26.702 66.5836 28.3797 66.5836 30.6926C66.5836 32.9905 68.3824 34.6832 70.5902 34.6832C72.7971 34.6832 74.5958 32.9905 74.5958 30.6926C74.5958 28.3797 72.7971 26.702 70.5902 26.702ZM79.3286 33.1106C78.1191 33.1106 77.0757 32.1132 77.0757 30.6926C77.0757 29.2561 78.1191 28.2737 79.3286 28.2737C80.5381 28.2737 81.5805 29.2561 81.5805 30.6926C81.5805 32.1132 80.5381 33.1106 79.3286 33.1106ZM79.3286 26.702C77.1217 26.702 75.323 28.3797 75.323 30.6926C75.323 32.9905 77.1217 34.6832 79.3286 34.6832C81.5355 34.6832 83.3342 32.9905 83.3342 30.6926C83.3342 28.3797 81.5355 26.702 79.3286 26.702Z" fill="white"/>
</svg>
